<?xml version="1.0" encoding="utf-8"?>
<!-- Generator: Adobe Illustrator 24.0.0, SVG Export Plug-In . SVG Version: 6.00 Build 0)  -->
<svg version="1.1" id="Camada_1" xmlns="http://www.w3.org/2000/svg" xmlns:xlink="http://www.w3.org/1999/xlink" x="0px" y="0px"
	 viewBox="0 0 225.3 123.1" style="enable-background:new 0 0 225.3 123.1;" xml:space="preserve">
<style type="text/css">
	.st0{fill:#1D284A;}
	.st1{fill:none;stroke:#61B7DE;stroke-width:1.5;stroke-miterlimit:10;stroke-dasharray:3.5,2.625;}
	.st2{fill:#FFFFFF;}
	.st3{fill:none;stroke:#D2333F;stroke-width:1.5;stroke-miterlimit:10;}
	.st4{fill:none;stroke:#61B7DE;stroke-width:1.5;stroke-miterlimit:10;}
	.st5{fill:none;stroke:#61B7DE;stroke-width:1.5;stroke-miterlimit:10;stroke-dasharray:3.494,2.621;}
	.st6{fill:none;stroke:#61B7DE;stroke-width:1.5;stroke-miterlimit:10;stroke-dasharray:3.484,2.613;}
	.st7{fill:none;stroke:#010203;stroke-width:0.713;stroke-miterlimit:10;}
	.st8{fill:#010203;}
	.st9{fill:none;stroke:#010203;stroke-width:0.75;stroke-miterlimit:22.926;}
	.st10{fill:none;stroke:#010203;stroke-width:0.707;stroke-miterlimit:10;}
	.st11{fill:none;stroke:#010203;stroke-width:0.75;stroke-miterlimit:10;}
	.st12{fill:none;stroke:#010203;stroke-width:0.706;stroke-miterlimit:10;}
	.st13{fill:none;stroke:#010202;stroke-width:0.85;stroke-miterlimit:10;}
	.st14{fill:#020203;}
	.st15{fill:#040405;}
	.st16{fill:none;stroke:#010202;stroke-width:0.254;stroke-miterlimit:10;}
	.st17{fill:#010202;}
	.st18{fill:none;stroke:#010202;stroke-width:0.267;stroke-miterlimit:22.926;}
	.st19{fill:none;stroke:#010202;stroke-width:0.252;stroke-miterlimit:10;}
	.st20{fill:none;stroke:#010202;stroke-width:0.267;stroke-miterlimit:10;}
	.st21{fill:none;stroke:#010202;stroke-width:0.251;stroke-miterlimit:10;}
	.st22{fill:none;stroke:#29BAE5;stroke-width:0.534;stroke-miterlimit:10;stroke-dasharray:1.244,0.933;}
	.st23{fill:none;stroke:#29BAE5;stroke-width:0.534;stroke-miterlimit:10;}
	.st24{fill:none;stroke:#29BAE5;stroke-width:0.534;stroke-miterlimit:10;stroke-dasharray:1.236,0.927;}
	.st25{fill:none;stroke:#D94140;stroke-width:0.534;stroke-miterlimit:10;}
	.st26{fill:none;stroke:#010202;stroke-width:0.303;stroke-miterlimit:10;}
	.st27{fill:none;stroke:#D94140;stroke-width:0.85;stroke-miterlimit:10;}
	.st28{fill:#D94140;}
	.st29{fill:none;stroke:#D94140;stroke-width:0.848;stroke-miterlimit:10;}
	.st30{fill:#1E1E1C;}
	.st31{fill:#FFFFFF;stroke:#020203;stroke-width:0.5;stroke-miterlimit:10;}
	.st32{fill:#FFFFFF;stroke:#1E1E1C;stroke-miterlimit:10;}
	.st33{fill:#FFFFFF;stroke:#000000;stroke-miterlimit:10;}
	.st34{fill:#CE2327;}
	.st35{opacity:0.5;fill:#F18D20;}
	.st36{opacity:0.5;fill:#F2A122;}
	.st37{opacity:0.5;fill:#1E1E1C;}
	.st38{fill:#020303;}
	.st39{fill:#FFFFFF;stroke:#1E1E1C;stroke-width:0.2691;stroke-miterlimit:10;}
	.st40{fill:#FFFFFF;stroke:#000000;stroke-width:0.2691;stroke-miterlimit:10;}
	.st41{fill:#FFFFFF;stroke:#1E1E1C;stroke-width:0.7315;stroke-miterlimit:10;}
	.st42{fill:#FFFFFF;stroke:#020203;stroke-width:0.4787;stroke-miterlimit:10;}
	.st43{fill:#FFFFFF;stroke:#020203;stroke-width:0.2965;stroke-miterlimit:10;}
</style>
<g>
	<g>
		<path d="M51.2,78.5c-0.3,0-0.6-0.1-0.8-0.3C50.2,78,50,77.7,50,77.4c0-0.3,0.1-0.5,0.2-0.7c0.1-0.2,0.3-0.3,0.5-0.4
			c0-0.2,0.1-0.6,0.1-1.4c0-0.8,0-1.8,0-3c0-1.2,0-2.5,0-4c0-1.5,0-3,0-4.6c0-1.6,0-3.2,0-4.8c0-1.6,0-3.1-0.1-4.4
			c-0.5,1.3-1.2,2.4-2.1,3.4c-0.9,0.9-2.1,1.5-3.6,1.7c-2.1,0.3-3.8-0.1-5.2-1.2c-1.3-1.1-2.3-2.5-2.9-4.3c-0.6-1.8-0.9-3.7-0.8-5.8
			c0.1-2.1,0.5-4,1.3-5.8c0.8-1.8,1.8-3.2,3.3-4.3c1.4-1.1,3.1-1.5,5.2-1.2c1.2,0.2,2.2,0.6,3,1.3c0.8,0.7,1.5,1.5,2.1,2.6
			c0-0.5,0.1-1,0.1-1.4c0-0.4,0.1-0.8,0.2-1.1c0.2-0.9,0.6-1.7,1.3-2.3c0.7-0.6,1.5-0.9,2.6-0.8c0.3,0,0.6,0.1,0.8,0.3
			c0.2,0.2,0.3,0.5,0.3,0.8c0,0.5-0.2,0.9-0.7,1c-0.1,0.4-0.2,1-0.3,1.8c-0.1,0.8-0.1,1.7-0.1,2.7c0,1-0.1,2-0.1,3.1
			c0,1.1,0,2.2,0,3.2c0,1,0,1.9,0,2.7c0,0.8,0,1.4,0,1.8c0,1.2,0.1,2.6,0.1,4.2c0,1.6,0,3.2,0.1,4.8c0,1.6,0,3.3,0.1,4.9
			c0,1.6,0,3,0,4.4c0,1.3,0,2.4-0.1,3.3c0,0.9,0,1.4-0.1,1.7c-0.2,0.9-0.6,1.6-1.3,2.2C53.1,78.3,52.3,78.6,51.2,78.5z M50.4,46.8
			c0-0.8-0.1-1.7-0.3-2.6c-0.2-0.9-0.5-1.7-0.8-2.5c-0.4-0.8-0.8-1.4-1.4-2c-0.6-0.5-1.2-0.9-2-1c-1-0.1-1.8,0.2-2.6,1.1
			c-0.7,0.9-1.3,2-1.8,3.5c-0.4,1.4-0.7,3-0.8,4.6c-0.1,1.7,0,3.2,0.2,4.6c0.3,1.4,0.7,2.6,1.4,3.5c0.7,0.9,1.6,1.2,2.7,1
			c0.9-0.1,1.7-0.6,2.3-1.2c0.6-0.7,1.1-1.5,1.5-2.3c0.4-0.9,0.7-1.8,0.9-2.8c0.2-1,0.4-1.9,0.5-2.6c0.1-0.3,0.2-0.5,0.4-0.6
			C50.5,47.2,50.4,47,50.4,46.8z"/>
		<path d="M69.8,34.2c1.1-0.1,1.9,0.2,2.6,0.8c0.6,0.6,1.1,1.4,1.3,2.3c0,0.2,0.1,0.7,0.1,1.5c0,0.8,0,1.7-0.1,2.8
			c0,1.1-0.1,2.3-0.2,3.7c-0.1,1.3-0.1,2.7-0.2,4.2c0,0.4,0,1.1,0,1.9c0,0.8,0,1.7,0,2.6c0,0.9,0,1.8,0.1,2.6c0,0.8,0.1,1.4,0.2,1.8
			c0.2,0.1,0.4,0.2,0.5,0.4c0.1,0.2,0.2,0.4,0.2,0.6c0,0.3-0.1,0.6-0.3,0.8c-0.2,0.2-0.5,0.3-0.8,0.3c-1.1,0.1-2-0.1-2.6-0.7
			c-0.7-0.6-1.1-1.3-1.3-2.2l-0.2-1.3c-0.4,0.8-0.9,1.4-1.6,1.9c-0.6,0.5-1.4,0.9-2.2,1c-2,0.3-3.5,0.2-4.6-0.5
			c-1-0.7-1.8-1.6-2.3-2.7c-0.5-1.1-0.8-2.3-0.8-3.7c-0.1-1.3-0.1-2.5-0.1-3.4c0-0.5,0-1.4,0.1-2.6c0.1-1.2,0.1-2.5,0.2-3.9
			c0.1-1.3,0.1-2.6,0.1-3.8s-0.1-2-0.2-2.4c-0.5-0.2-0.7-0.5-0.7-1.1c0-0.7,0.4-1.1,1.1-1.1c1.1-0.1,2,0.2,2.6,0.8
			c0.7,0.6,1.1,1.4,1.3,2.3c0.1,0.7,0.2,1.7,0.1,3.1c-0.1,1.3-0.2,2.8-0.3,4.4c-0.1,1.6-0.2,3.2-0.3,4.8c-0.1,1.6,0,3.1,0.2,4.3
			c0.2,1.2,0.5,2.2,1.1,2.8c0.5,0.7,1.3,0.8,2.3,0.4c0.5-0.1,1-0.5,1.4-1c0.4-0.5,0.7-1.2,1-1.8c0.3-0.7,0.5-1.3,0.6-2
			c0.1-0.7,0.2-1.2,0.3-1.7c0-0.4,0.3-0.8,0.7-1v-0.1c0-1.5,0.1-3,0.1-4.5c0.1-1.4,0.1-2.8,0.1-3.9c0-1.2,0.1-2.2,0.1-3
			c0-0.8,0-1.3,0-1.5c-0.2-0.1-0.4-0.2-0.5-0.4c-0.1-0.2-0.2-0.4-0.2-0.7c0-0.3,0.2-0.6,0.4-0.8C69.3,34.3,69.5,34.2,69.8,34.2z"/>
		<path d="M90.9,34.2c1.1-0.1,1.9,0.2,2.6,0.8c0.6,0.6,1.1,1.4,1.3,2.3c0,0.2,0.1,0.7,0.1,1.5c0,0.7,0,1.7-0.1,2.8
			c0,1.1-0.1,2.3-0.1,3.7c-0.1,1.3-0.1,2.7-0.1,4.1c0,0.4,0,1-0.1,1.7c0,0.7-0.1,1.4-0.1,2.2c0,0.8,0,1.5,0.1,2.2
			c0,0.7,0.1,1.2,0.2,1.6c0.5,0.1,0.7,0.4,0.7,1c0,0.3-0.1,0.6-0.3,0.8c-0.2,0.2-0.5,0.3-0.8,0.4c-1.1,0.1-2-0.2-2.6-0.8
			c-0.7-0.6-1.1-1.3-1.3-2.2l-0.2-1.2c-0.5,1.1-1.2,2-2.1,2.8c-0.9,0.7-2,1.2-3.3,1.4c-2.1,0.3-3.8-0.1-5.2-1.2
			c-1.3-1.1-2.3-2.5-2.9-4.3c-0.6-1.8-0.9-3.7-0.8-5.8c0.1-2.1,0.5-4,1.3-5.8c0.8-1.8,1.8-3.2,3.3-4.3c1.4-1.1,3.1-1.5,5.2-1.2
			c1.1,0.1,2,0.5,2.8,1.2c0.8,0.6,1.5,1.4,2.1,2.3c0-1,0.1-1.8,0.1-2.4c0-0.6,0-1-0.1-1.2c-0.2-0.1-0.4-0.2-0.5-0.4
			c-0.1-0.2-0.2-0.4-0.2-0.6c0-0.3,0.1-0.6,0.3-0.8C90.4,34.3,90.6,34.2,90.9,34.2z M90.3,46.6c0-0.8-0.2-1.7-0.4-2.6
			c-0.2-0.9-0.5-1.7-0.8-2.5c-0.4-0.8-0.8-1.4-1.4-2c-0.6-0.6-1.2-0.9-2-1c-1-0.1-1.9,0.2-2.6,1.1c-0.7,0.9-1.3,2-1.8,3.4
			c-0.4,1.4-0.7,3-0.8,4.6s0,3.2,0.3,4.6s0.8,2.5,1.4,3.4c0.7,0.9,1.6,1.2,2.7,1c0.9-0.1,1.7-0.6,2.3-1.2c0.6-0.7,1.1-1.4,1.5-2.3
			c0.4-0.9,0.7-1.8,0.9-2.8c0.2-1,0.4-1.9,0.5-2.6c0.1-0.3,0.2-0.4,0.3-0.5v-0.4C90.3,46.9,90.3,46.8,90.3,46.6z"/>
		<path d="M97.6,34.1c1.1-0.1,1.9,0.2,2.6,0.8c0.7,0.6,1.1,1.4,1.3,2.3c0,0.1,0,0.1,0,0.1s0,0,0.1,0c0,0,0,0.1,0,0.3
			c0,0.2,0,0.5,0,0.9c0.7-1.3,1.5-2.3,2.5-2.8c1-0.6,1.9-0.8,2.9-0.7s1.7,0.5,2.4,1.2c0.7,0.7,1.1,1.7,1.2,3c0,0.3-0.1,0.6-0.3,0.8
			c-0.2,0.2-0.5,0.3-0.8,0.3c-0.1,0-0.4,0-0.6-0.1c-0.3-0.1-0.5-0.1-0.8-0.2c-0.2-0.1-0.5-0.2-0.6-0.3c-0.2-0.1-0.3-0.3-0.3-0.4
			c-0.1-0.9-0.3-1.5-0.6-1.9c-0.4-0.4-0.8-0.4-1.3-0.2c-0.5,0.2-1,0.8-1.5,1.6c-0.5,0.8-0.9,1.9-1.3,3.3l-0.3,1.3
			c0,0.4-0.3,0.7-0.7,0.9c0,0.9,0,1.7,0,2.6c0,0.9,0,1.7,0,2.5c0,0.4,0,1,0,1.7c0,0.7,0,1.5,0,2.2c0,0.8,0.1,1.5,0.1,2.2
			s0.1,1.2,0.3,1.6c0.5,0.2,0.8,0.5,0.8,1c0,0.3,0,0.6-0.3,0.8c-0.2,0.2-0.5,0.3-0.8,0.4c-1.1,0.1-2-0.2-2.7-0.8
			c-0.7-0.6-1.2-1.3-1.4-2.2c-0.2-0.7-0.3-1.7-0.4-3c-0.1-1.3,0-2.6,0-4.1c0-1.5,0-3,0-4.5c0-1.5,0-2.8,0-4s0-2.2,0-3s0-1.3-0.1-1.5
			c-0.5-0.2-0.8-0.5-0.8-1.1c0-0.3,0.1-0.6,0.3-0.8C97.1,34.2,97.3,34.1,97.6,34.1z"/>
		<path d="M115,50.4c0,0.4,0,1,0.1,1.7c0.1,0.7,0.2,1.4,0.3,2.1c0.2,0.7,0.4,1.3,0.7,1.9c0.3,0.5,0.7,0.8,1.2,0.8
			c0.7,0,1.2-0.3,1.6-0.8c0.4-0.5,0.6-1.1,0.8-1.9c0.2-0.7,0.3-1.4,0.4-2.1c0.1-0.7,0.1-1.3,0.1-1.7c0-0.3,0.2-0.6,0.4-0.8
			c0.2-0.2,0.5-0.3,0.8-0.3c0.3,0,0.6,0.2,0.8,0.4c0.2,0.2,0.3,0.5,0.3,0.8c0,1-0.1,2-0.3,3c-0.1,1-0.4,1.9-0.8,2.7
			c-0.4,0.8-0.9,1.4-1.5,2c-0.6,0.5-1.4,0.8-2.3,1c-1,0.1-2-0.1-2.9-0.5c-0.9-0.5-1.6-1.2-2.2-2.3c-0.4-0.8-0.7-1.8-0.9-3.2
			c-0.2-1.3-0.3-2.8-0.3-4.3c0-1.5,0.2-3,0.4-4.6c0.3-1.5,0.7-2.9,1.3-4.1c0.6-1.2,1.4-2.2,2.4-2.9c1-0.7,2.1-1,3.5-0.9
			c0.5,0,1.1,0.2,1.7,0.4c0.6,0.3,1.1,0.7,1.5,1.2c0.4,0.6,0.5,1.4,0.3,2.3c-0.2,0.9-0.6,2-1.2,3.1c-0.6,1.1-1.5,2.3-2.5,3.5
			C117.5,48.1,116.3,49.3,115,50.4z M115.2,47.8c0.3-0.3,0.9-0.9,1.6-1.7c0.7-0.8,1.4-1.7,2.1-2.7c0.6-1,1.1-1.9,1.4-2.7
			c0.3-0.9,0.2-1.5-0.3-1.9c-0.8-0.3-1.4-0.1-2,0.4c-0.6,0.5-1,1.3-1.4,2.2c-0.4,0.9-0.7,2-0.9,3.1
			C115.4,45.7,115.3,46.8,115.2,47.8z"/>
		<path d="M126.1,34.3c1.1-0.1,1.9,0.2,2.6,0.8c0.6,0.6,1.1,1.4,1.3,2.3c0,0.1,0.1,0.3,0.1,0.6c0,0.3,0,0.7,0,1.1
			c0.4-0.7,0.9-1.4,1.5-2c0.6-0.6,1.4-0.9,2.3-1.1c1.3-0.3,2.4-0.3,3.3-0.1c0.9,0.2,1.6,0.6,2.2,1.1c0.6,0.5,1,1.2,1.3,1.9
			c0.3,0.8,0.5,1.6,0.7,2.4c0.1,0.8,0.2,1.7,0.3,2.5c0,0.8,0,1.6,0,2.2c0,0.5,0,1.4-0.1,2.6c0,1.2-0.1,2.5-0.1,3.9
			c-0.1,1.3-0.1,2.6-0.1,3.8c0,1.2,0.1,2,0.2,2.4c0.5,0.2,0.7,0.5,0.7,1c0,0.3-0.1,0.6-0.3,0.8c-0.2,0.2-0.5,0.3-0.8,0.3
			c-1.1,0.1-2-0.1-2.6-0.7c-0.7-0.6-1.1-1.3-1.3-2.2c-0.1-0.7-0.2-1.7-0.1-3.1s0.1-2.8,0.2-4.4c0.1-1.6,0.2-3.2,0.2-4.9
			s0-3.1-0.3-4.3c-0.2-1.2-0.6-2.1-1.1-2.8c-0.5-0.6-1.3-0.7-2.3-0.3c-0.5,0.2-1,0.6-1.3,1.1c-0.4,0.6-0.7,1.2-0.9,1.9
			c-0.3,0.7-0.5,1.3-0.6,2c-0.1,0.7-0.2,1.2-0.3,1.7c0,0.6-0.3,1-0.9,1.1c0,0.6,0,1.1,0,1.7c0,0.6,0,1.1-0.1,1.7c0,0.4,0,1-0.1,1.7
			c0,0.7-0.1,1.4-0.1,2.2c0,0.8,0,1.5,0.1,2.2c0,0.7,0.1,1.2,0.2,1.6c0.5,0.1,0.8,0.5,0.8,1c0,0.7-0.4,1-1.1,1.1
			c-1.1,0.1-2-0.2-2.6-0.8c-0.7-0.6-1.1-1.3-1.3-2.2c-0.2-0.7-0.3-1.7-0.3-3c0-1.3,0-2.6,0.1-4.1c0-1.5,0.1-3,0.1-4.5
			c0.1-1.5,0.1-2.8,0.1-3.9c0-1.2,0.1-2.1,0.1-2.9c0-0.8,0-1.3,0-1.5c-0.5-0.2-0.7-0.5-0.7-1.1c0-0.3,0.1-0.6,0.3-0.8
			C125.5,34.4,125.8,34.3,126.1,34.3z"/>
		<path d="M145.4,13.7h7.7v-0.1c-0.5-0.2-0.8-0.5-0.8-1.1c0-0.3,0.1-0.6,0.4-0.8c0.2-0.2,0.5-0.3,0.8-0.3c0.9-0.1,1.7,0.1,2.3,0.6
			c0.6,0.4,1.1,1,1.4,1.7h8.4c0.3,0,0.6,0.1,0.8,0.3c0.2,0.2,0.3,0.5,0.3,0.8c0,0.3-0.1,0.6-0.3,0.8c-0.2,0.2-0.5,0.3-0.8,0.3h-8.1
			c0,0.8,0,1.9,0,3.3c0,1.4,0,2.9,0,4.6c0,1.7,0,3.5-0.1,5.3c0,1.9-0.1,3.7-0.1,5.5c0,1.8,0,3.5-0.1,5c0,1.6-0.1,2.9-0.1,4
			c0,0.7-0.1,1.6-0.1,2.8c0,1.2-0.1,2.5-0.1,3.8c0,1.3,0,2.6,0.1,3.8c0.1,1.2,0.2,2.1,0.3,2.7c0.2,0.1,0.4,0.2,0.5,0.4
			c0.1,0.2,0.2,0.4,0.2,0.7c0,0.3-0.1,0.6-0.3,0.8c-0.2,0.2-0.5,0.3-0.8,0.3c-1.1,0.1-2.1-0.2-2.7-0.8c-0.7-0.6-1.1-1.4-1.3-2.4
			c-0.1-0.7-0.2-1.6-0.3-2.7c0-1.1-0.1-2.2-0.1-3.3c0-1.1,0-2.3,0.1-3.3c0-1.1,0.1-2,0.1-2.9c0-1.1,0.1-2.4,0.1-3.9
			c0-1.5,0-3.1,0.1-4.9s0.1-3.5,0.1-5.3c0-1.8,0-3.6,0.1-5.3c0-1.7,0-3.3,0-4.7c0-1.4,0-2.7,0-3.7l-7.7,0.1c-0.3,0-0.6-0.1-0.8-0.3
			c-0.2-0.2-0.3-0.5-0.3-0.8c0-0.3,0.1-0.6,0.3-0.8C144.9,13.8,145.1,13.7,145.4,13.7z"/>
		<path d="M186.2,61.9c-1.1,0.1-2-0.1-2.8-0.7c-0.7-0.6-1.2-1.3-1.5-2.2c-0.1-0.4-0.2-1.5-0.4-3.3c-0.1-1.8-0.3-4-0.4-6.4h-12.9
			c-0.6,1.9-1.2,3.6-1.8,5.1c-0.7,1.5-1.4,2.7-2.2,3.5c-0.2,0.2-0.3,0.3-0.5,0.4c-0.1,0.1-0.3,0.2-0.4,0.3c-0.1,0.1-0.3,0.2-0.4,0.3
			c-0.1,0.1-0.3,0.2-0.6,0.3c-0.3,0.1-0.6,0.2-0.9,0.1c-0.3-0.1-0.5-0.3-0.6-0.6c-0.1-0.3-0.2-0.6-0.1-0.9c0.1-0.3,0.3-0.5,0.6-0.6
			c0.4-0.3,0.7-0.5,0.9-0.7c0.2-0.2,0.5-0.5,0.8-0.9c0.5-0.7,1-1.6,1.4-2.7c0.4-1.1,0.9-2.3,1.3-3.7h-3.3c-0.3,0-0.6-0.1-0.8-0.3
			c-0.2-0.2-0.3-0.5-0.3-0.8c0-0.3,0.1-0.5,0.3-0.8c0.2-0.2,0.5-0.3,0.8-0.3h3.9c0.3-1.2,0.7-2.7,1.1-4.7c0.4-1.9,0.9-4,1.5-6.3
			s1.2-4.5,1.8-6.8c0.7-2.3,1.4-4.4,2.1-6.2s1.5-3.4,2.3-4.5c0.8-1.1,1.6-1.7,2.5-1.7c1.1,0,2.1,0.7,2.8,1.9s1.4,2.8,2,4.7
			c0.5,1.9,1,4,1.3,6.3c0.3,2.3,0.6,4.6,0.8,6.8c0.2,2.2,0.3,4.2,0.4,6.1s0.1,3.3,0.2,4.2h2.7c0.3,0,0.6,0.1,0.8,0.3
			c0.2,0.2,0.3,0.5,0.3,0.8c0,0.3-0.1,0.5-0.3,0.8c-0.2,0.2-0.5,0.3-0.8,0.3h-2.6c0.1,1.3,0.2,2.6,0.3,3.8c0.1,1.2,0.2,2.3,0.3,3.2
			c0.1,0.9,0.1,1.7,0.2,2.3s0.1,1,0.1,1.2c0.6,0.1,0.8,0.4,0.8,1c0,0.3,0,0.6-0.3,0.8C186.7,61.8,186.5,61.9,186.2,61.9z M181.1,47
			c0-0.6-0.1-1.7-0.1-3.3s-0.1-3.4-0.2-5.4s-0.2-4.1-0.4-6.3c-0.1-2.2-0.4-4.2-0.6-6.1c-0.3-1.9-0.6-3.4-1-4.7
			c-0.4-1.3-0.9-2-1.4-2.1c-0.5,0.2-1,0.9-1.6,2.1c-0.5,1.2-1.1,2.7-1.6,4.5c-0.5,1.8-1.1,3.7-1.6,5.8c-0.5,2.1-1,4.1-1.5,6.2
			c-0.5,2-0.9,3.8-1.3,5.5c-0.4,1.7-0.7,3-0.9,3.9L181.1,47z"/>
	</g>
	<g>
		<path d="M145.4,63.4h7.7v-0.1c-0.5-0.2-0.8-0.5-0.8-1.1c0-0.3,0.1-0.6,0.4-0.8c0.2-0.2,0.5-0.3,0.8-0.3c0.9-0.1,1.7,0.1,2.3,0.6
			c0.6,0.4,1.1,1,1.4,1.7h8.4c0.3,0,0.6,0.1,0.8,0.3c0.2,0.2,0.3,0.5,0.3,0.8c0,0.3-0.1,0.6-0.3,0.8c-0.2,0.2-0.5,0.3-0.8,0.3h-8.1
			c0,0.8,0,1.9,0,3.3c0,1.4,0,2.9,0,4.6c0,1.7,0,3.5-0.1,5.3c0,1.9-0.1,3.7-0.1,5.5c0,1.8,0,3.5-0.1,5c0,1.6-0.1,2.9-0.1,4
			c0,0.7-0.1,1.6-0.1,2.8c0,1.2-0.1,2.5-0.1,3.8c0,1.3,0,2.6,0.1,3.8c0.1,1.2,0.2,2.1,0.3,2.7c0.2,0.1,0.4,0.2,0.5,0.4
			c0.1,0.2,0.2,0.4,0.2,0.7c0,0.3-0.1,0.6-0.3,0.8c-0.2,0.2-0.5,0.3-0.8,0.3c-1.1,0.1-2.1-0.2-2.7-0.8c-0.7-0.6-1.1-1.4-1.3-2.4
			c-0.1-0.7-0.2-1.6-0.3-2.7c0-1.1-0.1-2.2-0.1-3.3c0-1.1,0-2.3,0.1-3.3c0-1.1,0.1-2,0.1-2.9c0-1.1,0.1-2.4,0.1-3.9
			c0-1.5,0-3.1,0.1-4.9s0.1-3.5,0.1-5.3c0-1.8,0-3.6,0.1-5.3c0-1.7,0-3.3,0-4.7c0-1.4,0-2.7,0-3.7l-7.7,0.1c-0.3,0-0.6-0.1-0.8-0.3
			c-0.2-0.2-0.3-0.5-0.3-0.8c0-0.3,0.1-0.6,0.3-0.8C144.9,63.6,145.1,63.4,145.4,63.4z"/>
		<path d="M186.2,111.7c-1.1,0.1-2-0.1-2.8-0.7c-0.7-0.6-1.2-1.3-1.5-2.2c-0.1-0.4-0.2-1.5-0.4-3.3c-0.1-1.8-0.3-4-0.4-6.4h-12.9
			c-0.6,1.9-1.2,3.6-1.8,5.1c-0.7,1.5-1.4,2.7-2.2,3.5c-0.2,0.2-0.3,0.3-0.5,0.4c-0.1,0.1-0.3,0.2-0.4,0.3c-0.1,0.1-0.3,0.2-0.4,0.3
			c-0.1,0.1-0.3,0.2-0.6,0.3c-0.3,0.1-0.6,0.2-0.9,0.1c-0.3-0.1-0.5-0.3-0.6-0.6c-0.1-0.3-0.2-0.6-0.1-0.9c0.1-0.3,0.3-0.5,0.6-0.6
			c0.4-0.3,0.7-0.5,0.9-0.7c0.2-0.2,0.5-0.5,0.8-0.9c0.5-0.7,1-1.6,1.4-2.7c0.4-1.1,0.9-2.3,1.3-3.7h-3.3c-0.3,0-0.6-0.1-0.8-0.3
			c-0.2-0.2-0.3-0.5-0.3-0.8c0-0.3,0.1-0.5,0.3-0.8c0.2-0.2,0.5-0.3,0.8-0.3h3.9c0.3-1.2,0.7-2.7,1.1-4.7c0.4-1.9,0.9-4,1.5-6.3
			s1.2-4.5,1.8-6.8c0.7-2.3,1.4-4.4,2.1-6.2s1.5-3.4,2.3-4.5c0.8-1.1,1.6-1.7,2.5-1.7c1.1,0,2.1,0.7,2.8,1.9s1.4,2.8,2,4.7
			c0.5,1.9,1,4,1.3,6.3c0.3,2.3,0.6,4.6,0.8,6.8c0.2,2.2,0.3,4.2,0.4,6.1s0.1,3.3,0.2,4.2h2.7c0.3,0,0.6,0.1,0.8,0.3
			c0.2,0.2,0.3,0.5,0.3,0.8c0,0.3-0.1,0.5-0.3,0.8c-0.2,0.2-0.5,0.3-0.8,0.3h-2.6c0.1,1.3,0.2,2.6,0.3,3.8c0.1,1.2,0.2,2.3,0.3,3.2
			c0.1,0.9,0.1,1.7,0.2,2.3s0.1,1,0.1,1.2c0.6,0.1,0.8,0.4,0.8,1c0,0.3,0,0.6-0.3,0.8C186.7,111.6,186.5,111.7,186.2,111.7z
			 M181.1,96.8c0-0.6-0.1-1.7-0.1-3.3s-0.1-3.4-0.2-5.4s-0.2-4.1-0.4-6.3c-0.1-2.2-0.4-4.2-0.6-6.1c-0.3-1.9-0.6-3.4-1-4.7
			c-0.4-1.3-0.9-2-1.4-2.1c-0.5,0.2-1,0.9-1.6,2.1c-0.5,1.2-1.1,2.7-1.6,4.5c-0.5,1.8-1.1,3.7-1.6,5.8c-0.5,2.1-1,4.1-1.5,6.2
			c-0.5,2-0.9,3.8-1.3,5.5c-0.4,1.7-0.7,3-0.9,3.9L181.1,96.8z M178.6,58.7c0.3-0.2,0.5-0.3,0.8-0.3c0.3,0,0.5,0.2,0.8,0.3
			c0.2,0.2,0.3,0.4,0.4,0.7c0,0.3-0.1,0.6-0.3,0.8l-4.1,4.5c-0.3,0.3-0.5,0.4-0.8,0.3c-0.3,0-0.5-0.2-0.8-0.4
			c-0.2-0.2-0.3-0.4-0.4-0.7c-0.1-0.3,0-0.6,0.3-0.8L178.6,58.7z"/>
	</g>
	<g>
		<path d="M68.8,63.7h1.3v4h0c0.6-0.4,1.3-0.7,2-0.7c1,0,1.9,0.4,2.6,1.3c0.5,0.6,0.7,1.3,0.7,2v0.1c0,1-0.4,1.9-1.3,2.6
			c-0.6,0.5-1.3,0.7-2,0.7h0c-0.7,0-1.4-0.2-2-0.7h0v0.7h-1.3V63.7z M70.2,70.4c0,0.7,0.3,1.3,1,1.8c0.3,0.2,0.6,0.2,1,0.2
			c0.6,0,1.2-0.3,1.6-0.8c0.3-0.4,0.4-0.7,0.4-1.1v-0.1c0-0.6-0.3-1.1-0.8-1.5c-0.4-0.3-0.8-0.4-1.3-0.4c-0.7,0-1.2,0.3-1.7,1
			C70.2,69.7,70.2,70.1,70.2,70.4z"/>
		<path d="M79.4,67.1c0.7,0,1.4,0.2,2,0.7h0v-0.7h1.3v6.7h-1.3v-0.7c-0.6,0.4-1.2,0.7-1.9,0.7h-0.2c-1,0-1.9-0.4-2.6-1.3
			c-0.4-0.6-0.7-1.3-0.7-2c0-1.1,0.5-2,1.4-2.8C78,67.3,78.7,67.1,79.4,67.1z M77.4,70.4c0,0.8,0.4,1.3,1.1,1.8
			c0.3,0.2,0.6,0.2,0.9,0.2h0.1c0.6,0,1.1-0.3,1.6-0.8c0.2-0.4,0.4-0.7,0.4-1.1v-0.1c0-0.7-0.3-1.3-1-1.7c-0.3-0.2-0.7-0.3-1-0.3
			c-0.6,0-1.2,0.3-1.6,0.8C77.5,69.6,77.4,70,77.4,70.4z"/>
		<path d="M83.2,67.1h1.3v0.8h0c0.7-0.5,1.6-0.8,2.6-0.8v1.3c-1.3,0-2.1,0.5-2.5,1.4c-0.1,0.3-0.2,0.5-0.2,0.7v3.3h-1.3V67.1z"/>
		<path d="M85.5,69.8h5.7V71h-5.7V69.8z"/>
		<path d="M95.4,67.1c1,0,1.8,0.4,2.5,1.2c0.5,0.7,0.8,1.4,0.8,2.2c0,0.3,0,0.5-0.1,0.7h-5.1c0.2,0.5,0.5,0.9,1,1.1
			c0.3,0.1,0.6,0.2,0.9,0.2c0.5,0,1-0.2,1.4-0.6l0.9,0.9v0c-0.7,0.6-1.4,1-2.3,1h0c-1,0-1.8-0.4-2.5-1.2c-0.5-0.7-0.8-1.4-0.8-2.2
			c0-1,0.4-1.9,1.2-2.6C93.8,67.3,94.6,67.1,95.4,67.1z M93.5,69.8h3.7c-0.1-0.4-0.4-0.8-0.9-1.1c-0.3-0.2-0.7-0.3-1-0.3
			c-0.7,0-1.3,0.3-1.7,1L93.5,69.8z"/>
		<path d="M99.2,67.1h1.3v0.4h0c0.4-0.2,0.9-0.4,1.3-0.4c0.8,0,1.4,0.3,2,0.9c0.5-0.6,1.2-0.9,2-0.9c0.7,0,1.4,0.3,1.9,0.9
			c0.5,0.5,0.7,1.1,0.7,1.9v4h-1.3v-4c0-0.6-0.3-1.1-0.9-1.3c-0.2,0-0.3-0.1-0.4-0.1c-0.5,0-1,0.3-1.2,0.8c-0.1,0.2-0.1,0.4-0.1,0.7
			v3.9h-1.3v-4.1c0-0.5-0.3-0.9-0.8-1.2c-0.2-0.1-0.4-0.1-0.6-0.1c-0.5,0-0.9,0.3-1.2,0.8c-0.1,0.2-0.1,0.4-0.1,0.5v4.1h-1.3V67.1z"
			/>
		<path d="M109.4,69.8h5.7V71h-5.7V69.8z"/>
		<path d="M115.9,63.7h1.3v4h0c0.6-0.4,1.3-0.7,2-0.7c1,0,1.9,0.4,2.6,1.3c0.5,0.6,0.7,1.3,0.7,2v0.1c0,1-0.4,1.9-1.3,2.6
			c-0.6,0.5-1.3,0.7-2,0.7h0c-0.7,0-1.4-0.2-2-0.7h0v0.7h-1.3V63.7z M117.2,70.4c0,0.7,0.3,1.3,1,1.8c0.3,0.2,0.6,0.2,1,0.2
			c0.6,0,1.2-0.3,1.6-0.8c0.3-0.4,0.4-0.7,0.4-1.1v-0.1c0-0.6-0.3-1.1-0.8-1.5c-0.4-0.3-0.8-0.4-1.3-0.4c-0.7,0-1.2,0.3-1.7,1
			C117.3,69.7,117.2,70.1,117.2,70.4z"/>
		<path d="M126.4,67.1c0.7,0,1.4,0.2,2,0.7h0v-0.7h1.3v6.7h-1.3v-0.7c-0.6,0.4-1.2,0.7-1.9,0.7h-0.2c-1,0-1.9-0.4-2.6-1.3
			c-0.4-0.6-0.7-1.3-0.7-2c0-1.1,0.5-2,1.4-2.8C125.1,67.3,125.8,67.1,126.4,67.1z M124.4,70.4c0,0.8,0.4,1.3,1.1,1.8
			c0.3,0.2,0.6,0.2,0.9,0.2h0.1c0.6,0,1.1-0.3,1.6-0.8c0.2-0.4,0.4-0.7,0.4-1.1v-0.1c0-0.7-0.3-1.3-1-1.7c-0.3-0.2-0.7-0.3-1-0.3
			c-0.6,0-1.2,0.3-1.6,0.8C124.6,69.6,124.4,70,124.4,70.4z"/>
		<path d="M130.3,67.1h1.3v0.8h0c0.7-0.5,1.6-0.8,2.6-0.8v1.3c-1.3,0-2.1,0.5-2.5,1.4c-0.1,0.3-0.2,0.5-0.2,0.7v3.3h-1.3V67.1z"/>
	</g>
</g>
</svg>
