<svg height="512pt" viewBox="-36 0 512 512" width="512pt" xmlns="http://www.w3.org/2000/svg"><path d="m195.542969 87.652344c-3.820313-1.597656-8.214844.203125-9.816407 4.023437l-18.820312 44.953125-18.820312-44.953125c-1.597657-3.824219-5.992188-5.621093-9.8125-4.023437-3.820313 1.601562-5.621094 5.992187-4.023438 9.816406l25.738281 61.476562c1.167969 2.789063 3.898438 4.605469 6.917969 4.605469 3.023438 0 5.75-1.816406 6.917969-4.605469l25.742187-61.476562c1.597656-3.824219-.203125-8.214844-4.023437-9.816406zm0 0"/><path d="m253.410156 163.550781c4.144532 0 7.5-3.359375 7.5-7.5v-23.238281h22.308594c12.609375 0 22.871094-10.261719 22.871094-22.871094s-10.261719-22.871094-22.871094-22.871094h-29.808594c-4.140625 0-7.5 3.359376-7.5 7.5v61.480469c0 4.140625 3.359375 7.5 7.5 7.5zm7.5-61.480469h22.308594c4.339844 0 7.871094 3.53125 7.871094 7.871094s-3.53125 7.867188-7.871094 7.867188h-22.308594zm0 0"/><path d="m227.8125 156.050781v-61.480469c0-4.140624-3.359375-7.5-7.5-7.5s-7.5 3.359376-7.5 7.5v61.480469c0 4.140625 3.359375 7.5 7.5 7.5s7.5-3.359375 7.5-7.5zm0 0"/><path d="m204.4375 192.714844-10.398438 32.003906c-.226562.695312-.875 1.167969-1.605468 1.167969h-33.652344c-16.214844 0-22.851562 20.71875-9.808594 30.191406l27.222656 19.78125c.59375.433594.839844 1.191406.613282 1.890625l-10.398438 32.003906c-4.988281 15.363282 12.597656 28.171875 25.6875 18.660156l27.222656-19.777343c.59375-.433594 1.394532-.433594 1.988282 0l27.222656 19.777343c13.0625 9.492188 30.679688-3.289062 25.683594-18.660156l-10.394532-32.003906c-.226562-.699219.019532-1.457031.613282-1.890625l27.222656-19.78125c13.070312-9.492187 6.371094-30.191406-9.8125-30.191406h-33.648438c-.734374 0-1.378906-.472657-1.605468-1.167969l-10.398438-32.003906c-5-15.363282-26.753906-15.390625-31.753906 0zm15.875 3.46875c1.226562 0 1.515625.878906 1.609375 1.167968l10.394531 32c2.242188 6.898438 8.621094 11.535157 15.875 11.535157h33.648438c.304687 0 1.230468 0 1.609375 1.167969.378906 1.167968-.367188 1.710937-.613281 1.890624l-27.222657 19.777344c-5.871093 4.265625-8.308593 11.761719-6.0625 18.664063l10.394531 32.003906c.09375.289063.378907 1.167969-.613281 1.886719-.992187.722656-1.742187.179687-1.988281 0l-27.222656-19.777344c-5.867188-4.265625-13.753906-4.265625-19.621094 0l-27.222656 19.777344c-.246094.179687-.996094.722656-1.988282 0-.992187-.722656-.707031-1.601563-.613281-1.890625l10.398438-32.003907c2.242187-6.898437-.195313-14.398437-6.0625-18.660156l-27.226563-19.777344c-.246094-.179687-.992187-.722656-.613281-1.890624.378906-1.167969 1.304687-1.167969 1.609375-1.167969h33.648438c7.253906 0 13.632812-4.636719 15.875-11.535157l10.398437-32c.09375-.289062.378906-1.167968 1.609375-1.167968zm0 0"/><path d="m0 235.226562v269.273438c0 4.144531 3.355469 7.5 7.5 7.5h102.234375c4.144531 0 7.5-3.355469 7.5-7.5s-3.355469-7.5-7.5-7.5h-78.347656l188.492187-131.300781 188.488282 131.300781h-263.632813c-4.140625 0-7.5 3.355469-7.5 7.5s3.359375 7.5 7.5 7.5h287.523437c4.140626 0 7.5-3.355469 7.5-7.5v-269.273438c0-2.453124-1.203124-4.75-3.214843-6.152343l-52.164063-36.339844v-46.984375c0-4.140625-3.359375-7.5-7.5-7.5-4.144531 0-7.5 3.359375-7.5 7.5v124.136719l-15 10.449219v-208.15625c0-4.144532-3.359375-7.5-7.5-7.5-14.988281 0-27.179687-12.191407-27.179687-27.179688 0-4.144531-3.355469-7.5-7.5-7.5h-184.640625c-4.144532 0-7.5 3.355469-7.5 7.5 0 14.984375-12.195313 27.179688-27.179688 27.179688-4.144531 0-7.5 3.355468-7.5 7.5v75.820312c0 4.144531 3.355469 7.5 7.5 7.5 4.140625 0 7.5-3.355469 7.5-7.5v-68.988281c17.257813-3.113281 30.898438-16.753907 34.011719-34.011719h170.976563c3.109374 17.257812 16.753906 30.898438 34.011718 34.011719v211.773437l-100.398437 69.9375-14.816407-10.320312c-2.574218-1.792969-5.996093-1.792969-8.570312 0l-14.816406 10.320312-100.398438-69.9375v-107.785156c0-4.144531-3.359375-7.5-7.5-7.5-4.144531 0-7.5 3.355469-7.5 7.5v97.335938l-15-10.449219v-245.207031c0-5.335938 4.339844-9.679688 9.679688-9.679688h279.640625c5.335937 0 9.679687 4.34375 9.679687 9.679688v85.070312c0 4.144531 3.355469 7.5 7.5 7.5 4.144532 0 7.5-3.355469 7.5-7.5v-85.070312c0-13.609376-11.070312-24.679688-24.679687-24.679688h-279.640625c-13.609375 0-24.679688 11.070312-24.679688 24.679688v168.054687l-52.164062 36.339844c-2.015625 1.402343-3.214844 3.699219-3.214844 6.152343zm55.378906-24.210937v48.421875c-7.351562-5.117188-27.417968-19.097656-34.757812-24.210938zm132.273438 158.847656-172.652344 120.273438v-240.542969zm237.105468 120.273438-172.65625-120.273438 172.65625-120.269531zm-40.378906-279.121094 34.753906 24.210937c-7.335937 5.113282-27.40625 19.09375-34.753906 24.210938zm0 0"/></svg>